<svg width="22" height="22" viewBox="0 0 22 22" fill="none" xmlns="http://www.w3.org/2000/svg">
<g clip-path="url(#clip0)">
<path d="M11.0037 5.35156C7.8843 5.35156 5.35889 7.87973 5.35889 10.9964C5.35889 14.1158 7.88705 16.6412 11.0037 16.6412C14.1231 16.6412 16.6486 14.1131 16.6486 10.9964C16.6486 7.87698 14.1204 5.35156 11.0037 5.35156ZM11.0037 14.6603C8.9788 14.6603 7.3398 13.0204 7.3398 10.9964C7.3398 8.9724 8.97972 7.33248 11.0037 7.33248C13.0277 7.33248 14.6676 8.9724 14.6676 10.9964C14.6686 13.0204 13.0286 14.6603 11.0037 14.6603Z" fill="white"/>
<path d="M15.5354 0.0703251C13.5114 -0.0240915 8.49814 -0.0195082 6.4723 0.0703251C4.69214 0.153742 3.12189 0.583658 1.85597 1.84958C-0.259697 3.96524 0.01072 6.81608 0.01072 10.997C0.01072 15.276 -0.227613 18.0608 1.85597 20.1444C3.97989 22.2674 6.87197 21.9897 11.0034 21.9897C15.2421 21.9897 16.7051 21.9924 18.2038 21.4122C20.2416 20.6211 21.7797 18.7997 21.9301 15.5281C22.0254 13.5032 22.0199 8.49083 21.9301 6.46499C21.7486 2.60308 19.676 0.260992 15.5354 0.0703251ZM18.7391 18.7447C17.3522 20.1316 15.4281 20.0078 10.9768 20.0078C6.39347 20.0078 4.55555 20.0757 3.21447 18.7309C1.66989 17.1937 1.94947 14.7251 1.94947 10.9823C1.94947 5.91774 1.42972 2.27032 6.51264 2.00999C7.68047 1.96874 8.02422 1.95499 10.964 1.95499L11.0052 1.98249C15.8901 1.98249 19.7227 1.47099 19.9528 6.55299C20.0051 7.71257 20.017 8.06091 20.017 10.9961C20.0161 15.5262 20.1022 17.3752 18.7391 18.7447Z" fill="white"/>
<path d="M16.8722 6.44797C17.6007 6.44797 18.1913 5.8574 18.1913 5.12889C18.1913 4.40039 17.6007 3.80981 16.8722 3.80981C16.1437 3.80981 15.5531 4.40039 15.5531 5.12889C15.5531 5.8574 16.1437 6.44797 16.8722 6.44797Z" fill="white"/>
</g>
<defs>
<clipPath id="clip0">
<rect width="22" height="22" fill="white"/>
</clipPath>
</defs>
</svg>
